<?xml version="1.0" encoding="UTF-8"?>
<svg width="48px" height="48px" viewBox="0 0 48 48" version="1.1" xmlns="http://www.w3.org/2000/svg" xmlns:xlink="http://www.w3.org/1999/xlink">
    <!-- Generator: Sketch 49.3 (51167) - http://www.bohemiancoding.com/sketch -->
    <title>head</title>
    <desc>Created with Sketch.</desc>
    <defs></defs>
    <g id="head" stroke="none" stroke-width="1" fill="none" fill-rule="evenodd">
        <g id="self_head" transform="translate(25.000000, 24.000000) scale(1, -1) translate(-25.000000, -24.000000) translate(2.000000, 5.000000)">
            <g transform="translate(23.000000, 19.000000) rotate(-270.000000) translate(-23.000000, -19.000000) translate(4.000000, -4.000000)">
                <path d="M7,0 L7,4.39517722 L6.3510286,5.21392862 C4.09408896,8.06131524 3,11.5167803 3,15.0318806 C3,21.0215422 4.2040653,25.2633728 7.32073562,30.2550127 C8.20768273,31.6755418 8.95372328,33.0918679 9.69836238,34.7061572 C10.0800394,35.5335876 11.1526445,38.0094426 11.2849303,38.3023143 C13.0165138,42.1359222 14.1985547,43 19,43 C23.8014453,43 24.9834862,42.1359222 26.7150697,38.3023143 C26.8473555,38.0094426 27.9199606,35.5335876 28.3016376,34.7061572 C29.0462767,33.0918679 29.7923173,31.6755418 30.6792644,30.2550127 C33.7959347,25.2633728 35,21.0215422 35,15.0318806 C35,11.6628902 33.6894411,8.34733393 31.6008344,5.56521197 L31,4.76487238 L31,0 L34,0 L34,3.76409996 C36.4050317,6.96771484 38,10.8975789 38,15.0318806 C38,21.5739739 36.6431074,26.3678025 33.2239704,31.8438713 C28.1029429,40.0456773 29.6100069,46 19,46 C8.38999308,46 9.89705712,40.0456773 4.77602962,31.8438713 C1.35689258,26.3678025 1.42441614e-13,21.5739739 0,15.0318806 C-9.39248679e-14,10.717836 1.40334857,6.62639173 4,3.35041996 L4,0 L7,0 Z" id="stroke" fill="#000000" fill-rule="nonzero"></path>
                <path d="M31.000087,0 L31.000087,4.76487238 L31.6009215,5.56521197 C33.6895281,8.34733393 35,11.6628902 35,15.0318806 C35,21.0215422 33.7959347,25.2633728 30.6792644,30.2550127 C29.7923173,31.6755418 29.0462767,33.0918679 28.3016376,34.7061572 C27.9199606,35.5335876 26.8473555,38.0094426 26.7150697,38.3023143 C24.9834862,42.1359222 23.8014453,43 19,43 C14.1985547,43 13.0165138,42.1359222 11.2849303,38.3023143 C11.1526445,38.0094426 10.0800394,35.5335876 9.69836238,34.7061572 C8.95372328,33.0918679 8.20768273,31.6755418 7.32073562,30.2550127 C4.2040653,25.2633728 3,21.0215422 3,15.0318806 C3,11.5167803 4.09417601,8.06131524 6.35111564,5.21392862 L7.00008705,4.39517722 L7.00008705,0 L31.000087,0 Z" id="color" fill="#F4F6F8"></path>
                <g id="Group" transform="translate(7.000000, 16.000000)" fill="#000000" fill-rule="nonzero">
                    <path d="M7.20662864,12.1214524 C7.29733473,12.4000929 7.28196155,12.6877984 7.16804015,12.9422674 C6.91415856,13.509369 6.2486129,13.7632797 5.68154711,13.5093814 C2.93299316,12.2789012 1.15242891,10.4773743 0.385349287,8.11654601 C-0.404198278,5.68656847 0.0231556696,3.1059793 1.6341035,0.412315825 C1.73915924,0.236652278 1.90430956,0.105006878 2.09897294,0.0417569116 C2.54356278,-0.102699084 3.02107878,0.140607469 3.16098436,0.571716655 L7.20662864,12.1214524 Z M2.68225542,1.09040932 L2.69932733,1.06655948 L2.70689105,1.05389737 C2.69931742,1.06656122 2.69108874,1.07874527 2.68225542,1.09040932 Z" id="Oval-3"></path>
                    <path d="M17.058773,12.1214524 L21.1044173,0.571716655 C21.2443228,0.140607469 21.7218388,-0.102699084 22.1664287,0.0417569116 C22.3610921,0.105006878 22.5262424,0.236652278 22.6312981,0.412315825 C24.242246,3.1059793 24.6695999,5.68656847 23.8800523,8.11654601 C23.1129727,10.4773743 21.3324085,12.2789012 18.5838545,13.5093814 C18.0167887,13.7632797 17.3512431,13.509369 17.0973615,12.9422674 C16.9834401,12.6877984 16.9680669,12.4000929 17.058773,12.1214524 Z M21.5831462,1.09040932 C21.5743129,1.07874527 21.5660842,1.06656122 21.5585106,1.05389737 L21.5660743,1.06655948 L21.5831462,1.09040932 Z" id="Oval-3"></path>
                </g>
                <path d="M22,39 C21.4477153,39 21,38.5522847 21,38 C21,37.4477153 21.4477153,37 22,37 C22.5522847,37 23,37.4477153 23,38 C23,38.5522847 22.5522847,39 22,39 Z M16,39 C15.4477153,39 15,38.5522847 15,38 C15,37.4477153 15.4477153,37 16,37 C16.5522847,37 17,37.4477153 17,38 C17,38.5522847 16.5522847,39 16,39 Z" id="Combined-Shape" fill="#000000"></path>
            </g>
        </g>
    </g>
</svg>