<?xml version="1.0" encoding="UTF-8"?>
<svg width="48px" height="48px" viewBox="0 0 48 48" version="1.1" xmlns="http://www.w3.org/2000/svg" xmlns:xlink="http://www.w3.org/1999/xlink">
    <!-- Generator: Sketch 49.3 (51167) - http://www.bohemiancoding.com/sketch -->
    <title>Tail</title>
    <desc>Created with Sketch.</desc>
    <defs></defs>
    <g id="Tail" stroke="none" stroke-width="1" fill="none" fill-rule="evenodd">
        <path d="M0,36 L13.0801553,36 C16.0693915,36 20.401481,35.2772184 24.7768394,34.0224815 C35.2050259,31.0319539 43,26.6825109 43,24 C43,19.2394991 24.2160436,12 13,12 L0,12 L0,9 L13,9 C22.7976431,9 46,15.6608738 46,24 C46,29.5153886 34.6899881,34.3005747 25.6038264,36.9062451 C20.9611723,38.2376353 16.3663043,39 13.0801553,39 L0,39 L0,36 Z" id="stroke" fill="#000000" fill-rule="nonzero"></path>
        <path d="M0,12 L0,36 L13.0801553,36 C16.0693915,36 20.401481,35.2772184 24.7768394,34.0224815 C35.2050259,31.0319539 43,26.6825109 43,24 C43,19.2394991 24.2160436,12 13,12 L0,12 Z" id="color" fill="#F4F6F8"></path>
    </g>
</svg>